<svg width="256" height="256" viewBox="0 0 256 256" fill="none" xmlns="http://www.w3.org/2000/svg">
<path d="M62.759 237.576C62.2691 236.747 58.5022 230.261 54.3981 223.09C50.2939 215.92 45.2099 207.092 43.1056 203.471C31.8854 184.31 27.4841 176.311 27.4841 175.177V174.042H139.67V175.474C139.67 176.263 139.517 177.06 139.333 177.285C139.148 177.47 136.995 181.091 134.586 185.356C123.366 204.936 116.209 217.345 112.563 223.646C111.511 225.529 109.174 229.528 107.407 232.586C105.672 235.644 104.09 238.244 103.905 238.356C103.72 238.469 94.6044 238.662 83.6091 238.775L63.6907 239L62.751 237.568L62.759 237.576Z" fill="#B6613C"/>
<path d="M62.759 237.576C62.2691 236.747 58.5022 230.261 54.3981 223.09C50.2939 215.92 45.2099 207.092 43.1056 203.471C31.8854 184.31 27.4841 176.311 27.4841 175.177V174.042H139.67V175.474C139.67 176.263 139.517 177.06 139.333 177.285C139.148 177.47 136.995 181.091 134.586 185.356C123.366 204.936 116.209 217.345 112.563 223.646C111.511 225.529 109.174 229.528 107.407 232.586C105.672 235.644 104.09 238.244 103.905 238.356C103.72 238.469 94.6044 238.662 83.6091 238.775L63.6907 239L62.751 237.568L62.759 237.576Z" fill="url(#paint0_radial_2940_2)" fill-opacity="0.2"/>
<path d="M135.269 238.638L118.964 238.565V237.205C118.964 235.693 119.832 234.075 129.02 218.31C132.184 212.838 138.096 202.578 142.16 195.488C146.224 188.358 151.573 179.152 153.982 175.007C161.701 161.802 172.808 142.456 173.033 141.812C173.218 141.362 173.676 141.249 174.768 141.321L176.278 141.434L179.852 147.655C181.844 151.091 186.028 158.366 189.193 163.878C192.317 169.382 197.024 177.534 199.618 181.985C211.818 202.996 211.593 202.578 211.593 204.541C211.593 205.523 211.441 206.505 211.256 206.73C211.071 206.915 210.316 208.09 209.601 209.329C208.886 210.577 205.385 216.685 201.811 222.913C198.237 229.134 194.735 235.25 194.02 236.497L192.743 238.759H172.15C160.817 238.759 144.216 238.718 135.293 238.646L135.269 238.638Z" fill="#B6613C"/>
<path d="M135.269 238.638L118.964 238.565V237.205C118.964 235.693 119.832 234.075 129.02 218.31C132.184 212.838 138.096 202.578 142.16 195.488C146.224 188.358 151.573 179.152 153.982 175.007C161.701 161.802 172.808 142.456 173.033 141.812C173.218 141.362 173.676 141.249 174.768 141.321L176.278 141.434L179.852 147.655C181.844 151.091 186.028 158.366 189.193 163.878C192.317 169.382 197.024 177.534 199.618 181.985C211.818 202.996 211.593 202.578 211.593 204.541C211.593 205.523 211.441 206.505 211.256 206.73C211.071 206.915 210.316 208.09 209.601 209.329C208.886 210.577 205.385 216.685 201.811 222.913C198.237 229.134 194.735 235.25 194.02 236.497L192.743 238.759H172.15C160.817 238.759 144.216 238.718 135.293 238.646L135.269 238.638Z" fill="url(#paint1_radial_2940_2)" fill-opacity="0.2"/>
<path d="M213.537 183.184C211.2 179.112 208.268 173.977 206.983 171.789C205.738 169.6 199.907 159.532 194.068 149.345C188.229 139.197 182.511 129.242 181.378 127.279C177.427 120.455 165.379 99.5556 164.207 97.4392C163.532 96.2723 163.002 94.7594 163.002 94.1156V92.9487H237.102L240.298 98.5336C242.065 101.592 246.322 108.979 249.751 114.942C254.835 123.77 256 126.112 256 127.279C256 128.671 252.346 135.31 233.447 168.022C231.11 172.062 227.199 178.814 224.789 182.999L220.42 190.66H219.103C217.786 190.66 217.786 190.619 213.529 183.192L213.537 183.184Z" fill="#B6613C"/>
<path d="M213.537 183.184C211.2 179.112 208.268 173.977 206.983 171.789C205.738 169.6 199.907 159.532 194.068 149.345C188.229 139.197 182.511 129.242 181.378 127.279C177.427 120.455 165.379 99.5556 164.207 97.4392C163.532 96.2723 163.002 94.7594 163.002 94.1156V92.9487H237.102L240.298 98.5336C242.065 101.592 246.322 108.979 249.751 114.942C254.835 123.77 256 126.112 256 127.279C256 128.671 252.346 135.31 233.447 168.022C231.11 172.062 227.199 178.814 224.789 182.999L220.42 190.66H219.103C217.786 190.66 217.786 190.619 213.529 183.192L213.537 183.184Z" fill="url(#paint2_radial_2940_2)" fill-opacity="0.2"/>
<path d="M18.7057 161.343C18.5932 161.158 14.5292 153.988 9.5978 145.385C4.70654 136.783 0.52206 129.58 0.337333 129.355C0.152606 129.17 0 128.301 0 127.391C0 126.031 0.562213 124.792 3.72667 119.473C7.1883 113.55 26.9943 79.22 32.9457 68.8147C35.5078 64.3243 35.6925 64.099 36.9375 63.9863C38.2145 63.8737 38.2948 63.9461 39.9895 67.0041C40.9292 68.7423 43.2262 72.774 45.0735 75.9849C46.9208 79.1878 51.1374 86.5108 54.4143 92.2084C57.6912 97.9059 62.5824 106.396 65.3292 111.071C68.0439 115.747 70.7104 120.31 71.2004 121.259C71.7304 122.201 75.3045 128.389 79.1436 135.028C92.4681 158.076 92.9982 159.017 92.9982 160.377V161.625H55.9483C35.5399 161.625 18.786 161.512 18.7137 161.359L18.7057 161.343Z" fill="#B6613C"/>
<path d="M18.7057 161.343C18.5932 161.158 14.5292 153.988 9.5978 145.385C4.70654 136.783 0.52206 129.58 0.337333 129.355C0.152606 129.17 0 128.301 0 127.391C0 126.031 0.562213 124.792 3.72667 119.473C7.1883 113.55 26.9943 79.22 32.9457 68.8147C35.5078 64.3243 35.6925 64.099 36.9375 63.9863C38.2145 63.8737 38.2948 63.9461 39.9895 67.0041C40.9292 68.7423 43.2262 72.774 45.0735 75.9849C46.9208 79.1878 51.1374 86.5108 54.4143 92.2084C57.6912 97.9059 62.5824 106.396 65.3292 111.071C68.0439 115.747 70.7104 120.31 71.2004 121.259C71.7304 122.201 75.3045 128.389 79.1436 135.028C92.4681 158.076 92.9982 159.017 92.9982 160.377V161.625H55.9483C35.5399 161.625 18.786 161.512 18.7137 161.359L18.7057 161.343Z" fill="url(#paint3_radial_2940_2)" fill-opacity="0.2"/>
<path d="M105.182 157.191C103.793 154.736 100.516 149.079 97.9537 144.629C89.0306 129.274 88.8458 128.896 88.8458 127.279C88.8458 126.072 89.4482 124.712 91.9701 120.374C93.705 117.429 97.9537 110.041 101.455 103.966L107.784 92.9487L128.08 93.0212L148.408 93.1338L153.87 102.565C165.62 122.861 167.54 126.329 167.54 127.271C167.54 127.834 166.15 130.707 164.303 133.91C162.496 137 160.086 141.225 158.882 143.301C157.677 145.377 154.85 150.318 152.553 154.237L148.408 161.408L128.08 161.52L107.752 161.593L105.19 157.183L105.182 157.191Z" fill="#B6613C"/>
<path d="M105.182 157.191C103.793 154.736 100.516 149.079 97.9537 144.629C89.0306 129.274 88.8458 128.896 88.8458 127.279C88.8458 126.072 89.4482 124.712 91.9701 120.374C93.705 117.429 97.9537 110.041 101.455 103.966L107.784 92.9487L128.08 93.0212L148.408 93.1338L153.87 102.565C165.62 122.861 167.54 126.329 167.54 127.271C167.54 127.834 166.15 130.707 164.303 133.91C162.496 137 160.086 141.225 158.882 143.301C157.677 145.377 154.85 150.318 152.553 154.237L148.408 161.408L128.08 161.52L107.752 161.593L105.19 157.183L105.182 157.191Z" fill="url(#paint4_radial_2940_2)" fill-opacity="0.2"/>
<path d="M77.2162 108.722C75.6741 105.969 71.9474 99.4832 68.9356 94.2765C47.4028 57.0415 44.4231 51.69 44.4231 50.2173C44.4231 49.0102 45.8125 46.3707 52.7438 34.3721C57.3379 26.4535 61.6268 19.058 62.2693 17.9636L63.4339 16H137.413V17.2473C137.413 18.4142 136.096 20.8686 129.317 32.4085C127.695 35.1607 107.897 69.5309 96.1869 89.931C81.9147 114.717 82.7098 113.51 81.2802 113.622C80.0032 113.695 80.0032 113.695 77.2162 108.722Z" fill="#B6613C"/>
<path d="M77.2162 108.722C75.6741 105.969 71.9474 99.4832 68.9356 94.2765C47.4028 57.0415 44.4231 51.69 44.4231 50.2173C44.4231 49.0102 45.8125 46.3707 52.7438 34.3721C57.3379 26.4535 61.6268 19.058 62.2693 17.9636L63.4339 16H137.413V17.2473C137.413 18.4142 136.096 20.8686 129.317 32.4085C127.695 35.1607 107.897 69.5309 96.1869 89.931C81.9147 114.717 82.7098 113.51 81.2802 113.622C80.0032 113.695 80.0032 113.695 77.2162 108.722Z" fill="url(#paint5_radial_2940_2)" fill-opacity="0.2"/>
<path d="M116.33 79.3326C116.33 78.1657 117.27 76.4275 128.562 56.9288C130.369 53.8386 134.474 46.7087 137.71 41.0836C140.907 35.4987 145.469 27.5399 147.838 23.4679L152.167 16H192.679L194.936 19.8466C196.18 21.9953 200.092 28.747 203.594 34.863C207.095 40.9709 212.139 49.7264 214.814 54.2893C226.974 75.3411 228.516 78.1335 228.516 79.3406V80.5075H116.33V79.3326Z" fill="#B6613C"/>
<path d="M116.33 79.3326C116.33 78.1657 117.27 76.4275 128.562 56.9288C130.369 53.8386 134.474 46.7087 137.71 41.0836C140.907 35.4987 145.469 27.5399 147.838 23.4679L152.167 16H192.679L194.936 19.8466C196.18 21.9953 200.092 28.747 203.594 34.863C207.095 40.9709 212.139 49.7264 214.814 54.2893C226.974 75.3411 228.516 78.1335 228.516 79.3406V80.5075H116.33V79.3326Z" fill="url(#paint6_radial_2940_2)" fill-opacity="0.2"/>
<defs>
<radialGradient id="paint0_radial_2940_2" cx="0" cy="0" r="1" gradientUnits="userSpaceOnUse" gradientTransform="translate(128 127.5) rotate(90) scale(111.5 128)">
<stop offset="0.6" stop-color="#B6613C"/>
<stop offset="1" stop-color="#020617"/>
</radialGradient>
<radialGradient id="paint1_radial_2940_2" cx="0" cy="0" r="1" gradientUnits="userSpaceOnUse" gradientTransform="translate(128 127.5) rotate(90) scale(111.5 128)">
<stop offset="0.6" stop-color="#B6613C"/>
<stop offset="1" stop-color="#020617"/>
</radialGradient>
<radialGradient id="paint2_radial_2940_2" cx="0" cy="0" r="1" gradientUnits="userSpaceOnUse" gradientTransform="translate(128 127.5) rotate(90) scale(111.5 128)">
<stop offset="0.6" stop-color="#B6613C"/>
<stop offset="1" stop-color="#020617"/>
</radialGradient>
<radialGradient id="paint3_radial_2940_2" cx="0" cy="0" r="1" gradientUnits="userSpaceOnUse" gradientTransform="translate(128 127.5) rotate(90) scale(111.5 128)">
<stop offset="0.6" stop-color="#B6613C"/>
<stop offset="1" stop-color="#020617"/>
</radialGradient>
<radialGradient id="paint4_radial_2940_2" cx="0" cy="0" r="1" gradientUnits="userSpaceOnUse" gradientTransform="translate(128 127.5) rotate(90) scale(111.5 128)">
<stop offset="0.6" stop-color="#B6613C"/>
<stop offset="1" stop-color="#020617"/>
</radialGradient>
<radialGradient id="paint5_radial_2940_2" cx="0" cy="0" r="1" gradientUnits="userSpaceOnUse" gradientTransform="translate(128 127.5) rotate(90) scale(111.5 128)">
<stop offset="0.6" stop-color="#B6613C"/>
<stop offset="1" stop-color="#020617"/>
</radialGradient>
<radialGradient id="paint6_radial_2940_2" cx="0" cy="0" r="1" gradientUnits="userSpaceOnUse" gradientTransform="translate(128 127.5) rotate(90) scale(111.5 128)">
<stop offset="0.6" stop-color="#B6613C"/>
<stop offset="1" stop-color="#020617"/>
</radialGradient>
</defs>
</svg>
